<?xml version="1.0" encoding="utf-8" standalone="no"?>
<!DOCTYPE svg PUBLIC "-//W3C//DTD SVG 1.1//EN"
  "http://www.w3.org/Graphics/SVG/1.1/DTD/svg11.dtd">
<!-- Created with matplotlib (http://matplotlib.org/) -->
<svg height="288pt" version="1.1" viewBox="0 0 432 288" width="432pt" xmlns="http://www.w3.org/2000/svg" xmlns:xlink="http://www.w3.org/1999/xlink">
 <defs>
  <style type="text/css">
*{stroke-linecap:butt;stroke-linejoin:round;stroke-miterlimit:100000;}
  </style>
 </defs>
 <g id="figure_1">
  <g id="patch_1">
   <path d="M 0 288 
L 432 288 
L 432 0 
L 0 0 
z
" style="fill:#ffffff;"/>
  </g>
  <g id="axes_1">
   <g id="patch_2">
    <path d="M 54 252 
L 388.8 252 
L 388.8 28.8 
L 54 28.8 
z
" style="fill:#ffffff;"/>
   </g>
   <g id="line2d_1">
    <defs>
     <path d="M 0 1.5 
C 0.397805 1.5 0.77937 1.341951 1.06066 1.06066 
C 1.341951 0.77937 1.5 0.397805 1.5 0 
C 1.5 -0.397805 1.341951 -0.77937 1.06066 -1.06066 
C 0.77937 -1.341951 0.397805 -1.5 0 -1.5 
C -0.397805 -1.5 -0.77937 -1.341951 -1.06066 -1.06066 
C -1.341951 -0.77937 -1.5 -0.397805 -1.5 0 
C -1.5 0.397805 -1.341951 0.77937 -1.06066 1.06066 
C -0.77937 1.341951 -0.397805 1.5 0 1.5 
z
" id="m3547972320" style="stroke:#0000ff;stroke-width:0.5;"/>
    </defs>
    <g clip-path="url(#p6246c5b663)">
     <use style="fill:#0000ff;stroke:#0000ff;stroke-width:0.5;" x="54.0" xlink:href="#m3547972320" y="251.99914856"/>
     <use style="fill:#0000ff;stroke:#0000ff;stroke-width:0.5;" x="65.16" xlink:href="#m3547972320" y="251.982971191"/>
     <use style="fill:#0000ff;stroke:#0000ff;stroke-width:0.5;" x="76.32" xlink:href="#m3547972320" y="251.838226318"/>
     <use style="fill:#0000ff;stroke:#0000ff;stroke-width:0.5;" x="87.48" xlink:href="#m3547972320" y="251.02935791"/>
     <use style="fill:#0000ff;stroke:#0000ff;stroke-width:0.5;" x="98.64" xlink:href="#m3547972320" y="247.874771118"/>
     <use style="fill:#0000ff;stroke:#0000ff;stroke-width:0.5;" x="109.8" xlink:href="#m3547972320" y="238.799267578"/>
     <use style="fill:#0000ff;stroke:#0000ff;stroke-width:0.5;" x="120.96" xlink:href="#m3547972320" y="218.998168945"/>
     <use style="fill:#0000ff;stroke:#0000ff;stroke-width:0.5;" x="132.12" xlink:href="#m3547972320" y="185.996337891"/>
     <use style="fill:#0000ff;stroke:#0000ff;stroke-width:0.5;" x="143.28" xlink:href="#m3547972320" y="144.744049072"/>
     <use style="fill:#0000ff;stroke:#0000ff;stroke-width:0.5;" x="154.44" xlink:href="#m3547972320" y="108.99206543"/>
     <use style="fill:#0000ff;stroke:#0000ff;stroke-width:0.5;" x="165.6" xlink:href="#m3547972320" y="94.6912719727"/>
     <use style="fill:#0000ff;stroke:#0000ff;stroke-width:0.5;" x="176.76" xlink:href="#m3547972320" y="108.99206543"/>
     <use style="fill:#0000ff;stroke:#0000ff;stroke-width:0.5;" x="187.92" xlink:href="#m3547972320" y="144.744049072"/>
     <use style="fill:#0000ff;stroke:#0000ff;stroke-width:0.5;" x="199.08" xlink:href="#m3547972320" y="185.996337891"/>
     <use style="fill:#0000ff;stroke:#0000ff;stroke-width:0.5;" x="210.24" xlink:href="#m3547972320" y="218.998168945"/>
     <use style="fill:#0000ff;stroke:#0000ff;stroke-width:0.5;" x="221.4" xlink:href="#m3547972320" y="238.799267578"/>
     <use style="fill:#0000ff;stroke:#0000ff;stroke-width:0.5;" x="232.56" xlink:href="#m3547972320" y="247.874771118"/>
     <use style="fill:#0000ff;stroke:#0000ff;stroke-width:0.5;" x="243.72" xlink:href="#m3547972320" y="251.02935791"/>
     <use style="fill:#0000ff;stroke:#0000ff;stroke-width:0.5;" x="254.88" xlink:href="#m3547972320" y="251.838226318"/>
     <use style="fill:#0000ff;stroke:#0000ff;stroke-width:0.5;" x="266.04" xlink:href="#m3547972320" y="251.982971191"/>
     <use style="fill:#0000ff;stroke:#0000ff;stroke-width:0.5;" x="277.2" xlink:href="#m3547972320" y="251.99914856"/>
     <use style="fill:#0000ff;stroke:#0000ff;stroke-width:0.5;" x="288.36" xlink:href="#m3547972320" y="252.0"/>
     <use style="fill:#0000ff;stroke:#0000ff;stroke-width:0.5;" x="299.52" xlink:href="#m3547972320" y="252.0"/>
     <use style="fill:#0000ff;stroke:#0000ff;stroke-width:0.5;" x="310.68" xlink:href="#m3547972320" y="252.0"/>
     <use style="fill:#0000ff;stroke:#0000ff;stroke-width:0.5;" x="321.84" xlink:href="#m3547972320" y="252.0"/>
     <use style="fill:#0000ff;stroke:#0000ff;stroke-width:0.5;" x="333.0" xlink:href="#m3547972320" y="252.0"/>
     <use style="fill:#0000ff;stroke:#0000ff;stroke-width:0.5;" x="344.16" xlink:href="#m3547972320" y="252.0"/>
     <use style="fill:#0000ff;stroke:#0000ff;stroke-width:0.5;" x="355.32" xlink:href="#m3547972320" y="252.0"/>
     <use style="fill:#0000ff;stroke:#0000ff;stroke-width:0.5;" x="366.48" xlink:href="#m3547972320" y="252.0"/>
     <use style="fill:#0000ff;stroke:#0000ff;stroke-width:0.5;" x="377.64" xlink:href="#m3547972320" y="252.0"/>
     <use style="fill:#0000ff;stroke:#0000ff;stroke-width:0.5;" x="388.8" xlink:href="#m3547972320" y="252.0"/>
     <use style="fill:#0000ff;stroke:#0000ff;stroke-width:0.5;" x="399.96" xlink:href="#m3547972320" y="252.0"/>
     <use style="fill:#0000ff;stroke:#0000ff;stroke-width:0.5;" x="411.12" xlink:href="#m3547972320" y="252.0"/>
     <use style="fill:#0000ff;stroke:#0000ff;stroke-width:0.5;" x="422.28" xlink:href="#m3547972320" y="252.0"/>
     <use style="fill:#0000ff;stroke:#0000ff;stroke-width:0.5;" x="433.44" xlink:href="#m3547972320" y="252.0"/>
     <use style="fill:#0000ff;stroke:#0000ff;stroke-width:0.5;" x="444.6" xlink:href="#m3547972320" y="252.0"/>
     <use style="fill:#0000ff;stroke:#0000ff;stroke-width:0.5;" x="455.76" xlink:href="#m3547972320" y="252.0"/>
     <use style="fill:#0000ff;stroke:#0000ff;stroke-width:0.5;" x="466.92" xlink:href="#m3547972320" y="252.0"/>
     <use style="fill:#0000ff;stroke:#0000ff;stroke-width:0.5;" x="478.08" xlink:href="#m3547972320" y="252.0"/>
     <use style="fill:#0000ff;stroke:#0000ff;stroke-width:0.5;" x="489.24" xlink:href="#m3547972320" y="252.0"/>
     <use style="fill:#0000ff;stroke:#0000ff;stroke-width:0.5;" x="500.4" xlink:href="#m3547972320" y="252.0"/>
    </g>
   </g>
   <g id="line2d_2">
    <defs>
     <path d="M 0 1.5 
C 0.397805 1.5 0.77937 1.341951 1.06066 1.06066 
C 1.341951 0.77937 1.5 0.397805 1.5 0 
C 1.5 -0.397805 1.341951 -0.77937 1.06066 -1.06066 
C 0.77937 -1.341951 0.397805 -1.5 0 -1.5 
C -0.397805 -1.5 -0.77937 -1.341951 -1.06066 -1.06066 
C -1.341951 -0.77937 -1.5 -0.397805 -1.5 0 
C -1.5 0.397805 -1.341951 0.77937 -1.06066 1.06066 
C -0.77937 1.341951 -0.397805 1.5 0 1.5 
z
" id="m3313f32e71" style="stroke:#008000;stroke-width:0.5;"/>
    </defs>
    <g clip-path="url(#p6246c5b663)">
     <use style="fill:#008000;stroke:#008000;stroke-width:0.5;" x="54.0" xlink:href="#m3313f32e71" y="251.999999999"/>
     <use style="fill:#008000;stroke:#008000;stroke-width:0.5;" x="65.16" xlink:href="#m3313f32e71" y="251.999999951"/>
     <use style="fill:#008000;stroke:#008000;stroke-width:0.5;" x="76.32" xlink:href="#m3313f32e71" y="251.999998611"/>
     <use style="fill:#008000;stroke:#008000;stroke-width:0.5;" x="87.48" xlink:href="#m3313f32e71" y="251.999975007"/>
     <use style="fill:#008000;stroke:#008000;stroke-width:0.5;" x="98.64" xlink:href="#m3313f32e71" y="251.999681336"/>
     <use style="fill:#008000;stroke:#008000;stroke-width:0.5;" x="109.8" xlink:href="#m3313f32e71" y="251.996940825"/>
     <use style="fill:#008000;stroke:#008000;stroke-width:0.5;" x="120.96" xlink:href="#m3313f32e71" y="251.977056184"/>
     <use style="fill:#008000;stroke:#008000;stroke-width:0.5;" x="132.12" xlink:href="#m3313f32e71" y="251.862337104"/>
     <use style="fill:#008000;stroke:#008000;stroke-width:0.5;" x="143.28" xlink:href="#m3313f32e71" y="251.328893381"/>
     <use style="fill:#008000;stroke:#008000;stroke-width:0.5;" x="154.44" xlink:href="#m3313f32e71" y="249.315573524"/>
     <use style="fill:#008000;stroke:#008000;stroke-width:0.5;" x="165.6" xlink:href="#m3313f32e71" y="243.14139263"/>
     <use style="fill:#008000;stroke:#008000;stroke-width:0.5;" x="176.76" xlink:href="#m3313f32e71" y="227.840161719"/>
     <use style="fill:#008000;stroke:#008000;stroke-width:0.5;" x="187.92" xlink:href="#m3313f32e71" y="197.640363868"/>
     <use style="fill:#008000;stroke:#008000;stroke-width:0.5;" x="199.08" xlink:href="#m3313f32e71" y="151.643748679"/>
     <use style="fill:#008000;stroke:#008000;stroke-width:0.5;" x="210.24" xlink:href="#m3313f32e71" y="101.465623018"/>
     <use style="fill:#008000;stroke:#008000;stroke-width:0.5;" x="221.4" xlink:href="#m3313f32e71" y="71.3587476221"/>
     <use style="fill:#008000;stroke:#008000;stroke-width:0.5;" x="232.56" xlink:href="#m3313f32e71" y="82.6488258958"/>
     <use style="fill:#008000;stroke:#008000;stroke-width:0.5;" x="243.72" xlink:href="#m3313f32e71" y="132.45799475"/>
     <use style="fill:#008000;stroke:#008000;stroke-width:0.5;" x="254.88" xlink:href="#m3313f32e71" y="192.228997375"/>
     <use style="fill:#008000;stroke:#008000;stroke-width:0.5;" x="266.04" xlink:href="#m3313f32e71" y="233.124946539"/>
     <use style="fill:#008000;stroke:#008000;stroke-width:0.5;" x="277.2" xlink:href="#m3313f32e71" y="249.168741981"/>
     <use style="fill:#008000;stroke:#008000;stroke-width:0.5;" x="288.36" xlink:href="#m3313f32e71" y="252.0"/>
     <use style="fill:#008000;stroke:#008000;stroke-width:0.5;" x="299.52" xlink:href="#m3313f32e71" y="252.0"/>
     <use style="fill:#008000;stroke:#008000;stroke-width:0.5;" x="310.68" xlink:href="#m3313f32e71" y="252.0"/>
     <use style="fill:#008000;stroke:#008000;stroke-width:0.5;" x="321.84" xlink:href="#m3313f32e71" y="252.0"/>
     <use style="fill:#008000;stroke:#008000;stroke-width:0.5;" x="333.0" xlink:href="#m3313f32e71" y="252.0"/>
     <use style="fill:#008000;stroke:#008000;stroke-width:0.5;" x="344.16" xlink:href="#m3313f32e71" y="252.0"/>
     <use style="fill:#008000;stroke:#008000;stroke-width:0.5;" x="355.32" xlink:href="#m3313f32e71" y="252.0"/>
     <use style="fill:#008000;stroke:#008000;stroke-width:0.5;" x="366.48" xlink:href="#m3313f32e71" y="252.0"/>
     <use style="fill:#008000;stroke:#008000;stroke-width:0.5;" x="377.64" xlink:href="#m3313f32e71" y="252.0"/>
     <use style="fill:#008000;stroke:#008000;stroke-width:0.5;" x="388.8" xlink:href="#m3313f32e71" y="252.0"/>
     <use style="fill:#008000;stroke:#008000;stroke-width:0.5;" x="399.96" xlink:href="#m3313f32e71" y="252.0"/>
     <use style="fill:#008000;stroke:#008000;stroke-width:0.5;" x="411.12" xlink:href="#m3313f32e71" y="252.0"/>
     <use style="fill:#008000;stroke:#008000;stroke-width:0.5;" x="422.28" xlink:href="#m3313f32e71" y="252.0"/>
     <use style="fill:#008000;stroke:#008000;stroke-width:0.5;" x="433.44" xlink:href="#m3313f32e71" y="252.0"/>
     <use style="fill:#008000;stroke:#008000;stroke-width:0.5;" x="444.6" xlink:href="#m3313f32e71" y="252.0"/>
     <use style="fill:#008000;stroke:#008000;stroke-width:0.5;" x="455.76" xlink:href="#m3313f32e71" y="252.0"/>
     <use style="fill:#008000;stroke:#008000;stroke-width:0.5;" x="466.92" xlink:href="#m3313f32e71" y="252.0"/>
     <use style="fill:#008000;stroke:#008000;stroke-width:0.5;" x="478.08" xlink:href="#m3313f32e71" y="252.0"/>
     <use style="fill:#008000;stroke:#008000;stroke-width:0.5;" x="489.24" xlink:href="#m3313f32e71" y="252.0"/>
     <use style="fill:#008000;stroke:#008000;stroke-width:0.5;" x="500.4" xlink:href="#m3313f32e71" y="252.0"/>
    </g>
   </g>
   <g id="line2d_3">
    <defs>
     <path d="M 0 1.5 
C 0.397805 1.5 0.77937 1.341951 1.06066 1.06066 
C 1.341951 0.77937 1.5 0.397805 1.5 0 
C 1.5 -0.397805 1.341951 -0.77937 1.06066 -1.06066 
C 0.77937 -1.341951 0.397805 -1.5 0 -1.5 
C -0.397805 -1.5 -0.77937 -1.341951 -1.06066 -1.06066 
C -1.341951 -0.77937 -1.5 -0.397805 -1.5 0 
C -1.5 0.397805 -1.341951 0.77937 -1.06066 1.06066 
C -0.77937 1.341951 -0.397805 1.5 0 1.5 
z
" id="m76fe032cd8" style="stroke:#ff0000;stroke-width:0.5;"/>
    </defs>
    <g clip-path="url(#p6246c5b663)">
     <use style="fill:#ff0000;stroke:#ff0000;stroke-width:0.5;" x="54.0" xlink:href="#m76fe032cd8" y="251.999999999"/>
     <use style="fill:#ff0000;stroke:#ff0000;stroke-width:0.5;" x="65.16" xlink:href="#m76fe032cd8" y="251.999999968"/>
     <use style="fill:#ff0000;stroke:#ff0000;stroke-width:0.5;" x="76.32" xlink:href="#m76fe032cd8" y="251.999999367"/>
     <use style="fill:#ff0000;stroke:#ff0000;stroke-width:0.5;" x="87.48" xlink:href="#m76fe032cd8" y="251.999991977"/>
     <use style="fill:#ff0000;stroke:#ff0000;stroke-width:0.5;" x="98.64" xlink:href="#m76fe032cd8" y="251.999925792"/>
     <use style="fill:#ff0000;stroke:#ff0000;stroke-width:0.5;" x="109.8" xlink:href="#m76fe032cd8" y="251.9994657"/>
     <use style="fill:#ff0000;stroke:#ff0000;stroke-width:0.5;" x="120.96" xlink:href="#m76fe032cd8" y="251.996883247"/>
     <use style="fill:#ff0000;stroke:#ff0000;stroke-width:0.5;" x="132.12" xlink:href="#m76fe032cd8" y="251.984861488"/>
     <use style="fill:#ff0000;stroke:#ff0000;stroke-width:0.5;" x="143.28" xlink:href="#m76fe032cd8" y="251.937553637"/>
     <use style="fill:#ff0000;stroke:#ff0000;stroke-width:0.5;" x="154.44" xlink:href="#m76fe032cd8" y="251.777968485"/>
     <use style="fill:#ff0000;stroke:#ff0000;stroke-width:0.5;" x="165.6" xlink:href="#m76fe032cd8" y="251.311702305"/>
     <use style="fill:#ff0000;stroke:#ff0000;stroke-width:0.5;" x="176.76" xlink:href="#m76fe032cd8" y="250.122824467"/>
     <use style="fill:#ff0000;stroke:#ff0000;stroke-width:0.5;" x="187.92" xlink:href="#m76fe032cd8" y="247.463492463"/>
     <use style="fill:#ff0000;stroke:#ff0000;stroke-width:0.5;" x="199.08" xlink:href="#m76fe032cd8" y="242.229060689"/>
     <use style="fill:#ff0000;stroke:#ff0000;stroke-width:0.5;" x="210.24" xlink:href="#m76fe032cd8" y="233.156045614"/>
     <use style="fill:#ff0000;stroke:#ff0000;stroke-width:0.5;" x="221.4" xlink:href="#m76fe032cd8" y="219.33714573"/>
     <use style="fill:#ff0000;stroke:#ff0000;stroke-width:0.5;" x="232.56" xlink:href="#m76fe032cd8" y="200.964290203"/>
     <use style="fill:#ff0000;stroke:#ff0000;stroke-width:0.5;" x="243.72" xlink:href="#m76fe032cd8" y="179.94958617"/>
     <use style="fill:#ff0000;stroke:#ff0000;stroke-width:0.5;" x="254.88" xlink:href="#m76fe032cd8" y="159.935582328"/>
     <use style="fill:#ff0000;stroke:#ff0000;stroke-width:0.5;" x="266.04" xlink:href="#m76fe032cd8" y="145.399095327"/>
     <use style="fill:#ff0000;stroke:#ff0000;stroke-width:0.5;" x="277.2" xlink:href="#m76fe032cd8" y="140.069050093"/>
     <use style="fill:#ff0000;stroke:#ff0000;stroke-width:0.5;" x="288.36" xlink:href="#m76fe032cd8" y="145.399095327"/>
     <use style="fill:#ff0000;stroke:#ff0000;stroke-width:0.5;" x="299.52" xlink:href="#m76fe032cd8" y="159.935582328"/>
     <use style="fill:#ff0000;stroke:#ff0000;stroke-width:0.5;" x="310.68" xlink:href="#m76fe032cd8" y="179.94958617"/>
     <use style="fill:#ff0000;stroke:#ff0000;stroke-width:0.5;" x="321.84" xlink:href="#m76fe032cd8" y="200.964290203"/>
     <use style="fill:#ff0000;stroke:#ff0000;stroke-width:0.5;" x="333.0" xlink:href="#m76fe032cd8" y="219.33714573"/>
     <use style="fill:#ff0000;stroke:#ff0000;stroke-width:0.5;" x="344.16" xlink:href="#m76fe032cd8" y="233.156045614"/>
     <use style="fill:#ff0000;stroke:#ff0000;stroke-width:0.5;" x="355.32" xlink:href="#m76fe032cd8" y="242.229060689"/>
     <use style="fill:#ff0000;stroke:#ff0000;stroke-width:0.5;" x="366.48" xlink:href="#m76fe032cd8" y="247.463492463"/>
     <use style="fill:#ff0000;stroke:#ff0000;stroke-width:0.5;" x="377.64" xlink:href="#m76fe032cd8" y="250.122824467"/>
     <use style="fill:#ff0000;stroke:#ff0000;stroke-width:0.5;" x="388.8" xlink:href="#m76fe032cd8" y="251.311702305"/>
     <use style="fill:#ff0000;stroke:#ff0000;stroke-width:0.5;" x="399.96" xlink:href="#m76fe032cd8" y="251.777968485"/>
     <use style="fill:#ff0000;stroke:#ff0000;stroke-width:0.5;" x="411.12" xlink:href="#m76fe032cd8" y="251.937553637"/>
     <use style="fill:#ff0000;stroke:#ff0000;stroke-width:0.5;" x="422.28" xlink:href="#m76fe032cd8" y="251.984861488"/>
     <use style="fill:#ff0000;stroke:#ff0000;stroke-width:0.5;" x="433.44" xlink:href="#m76fe032cd8" y="251.996883247"/>
     <use style="fill:#ff0000;stroke:#ff0000;stroke-width:0.5;" x="444.6" xlink:href="#m76fe032cd8" y="251.9994657"/>
     <use style="fill:#ff0000;stroke:#ff0000;stroke-width:0.5;" x="455.76" xlink:href="#m76fe032cd8" y="251.999925792"/>
     <use style="fill:#ff0000;stroke:#ff0000;stroke-width:0.5;" x="466.92" xlink:href="#m76fe032cd8" y="251.999991977"/>
     <use style="fill:#ff0000;stroke:#ff0000;stroke-width:0.5;" x="478.08" xlink:href="#m76fe032cd8" y="251.999999367"/>
     <use style="fill:#ff0000;stroke:#ff0000;stroke-width:0.5;" x="489.24" xlink:href="#m76fe032cd8" y="251.999999968"/>
     <use style="fill:#ff0000;stroke:#ff0000;stroke-width:0.5;" x="500.4" xlink:href="#m76fe032cd8" y="251.999999999"/>
    </g>
   </g>
   <g id="patch_3">
    <path d="M 54 28.8 
L 388.8 28.8 
" style="fill:none;stroke:#000000;stroke-linecap:square;stroke-linejoin:miter;"/>
   </g>
   <g id="patch_4">
    <path d="M 388.8 252 
L 388.8 28.8 
" style="fill:none;stroke:#000000;stroke-linecap:square;stroke-linejoin:miter;"/>
   </g>
   <g id="patch_5">
    <path d="M 54 252 
L 388.8 252 
" style="fill:none;stroke:#000000;stroke-linecap:square;stroke-linejoin:miter;"/>
   </g>
   <g id="patch_6">
    <path d="M 54 252 
L 54 28.8 
" style="fill:none;stroke:#000000;stroke-linecap:square;stroke-linejoin:miter;"/>
   </g>
   <g id="matplotlib.axis_1">
    <g id="xtick_1">
     <g id="line2d_4">
      <path clip-path="url(#p6246c5b663)" d="M 54 252 
L 54 28.8 
" style="fill:none;stroke:#000000;stroke-dasharray:1.000000,3.000000;stroke-dashoffset:0.0;stroke-width:0.5;"/>
     </g>
     <g id="line2d_5">
      <defs>
       <path d="M 0 0 
L 0 -4 
" id="md1cce8c870" style="stroke:#000000;stroke-width:0.5;"/>
      </defs>
      <g>
       <use style="stroke:#000000;stroke-width:0.5;" x="54.0" xlink:href="#md1cce8c870" y="252.0"/>
      </g>
     </g>
     <g id="line2d_6">
      <defs>
       <path d="M 0 0 
L 0 4 
" id="ma8b3b7ec7f" style="stroke:#000000;stroke-width:0.5;"/>
      </defs>
      <g>
       <use style="stroke:#000000;stroke-width:0.5;" x="54.0" xlink:href="#ma8b3b7ec7f" y="28.8"/>
      </g>
     </g>
     <g id="text_1">
      <!-- 0 -->
      <defs>
       <path d="M 31.78125 66.40625 
Q 24.171875 66.40625 20.328125 58.90625 
Q 16.5 51.421875 16.5 36.375 
Q 16.5 21.390625 20.328125 13.890625 
Q 24.171875 6.390625 31.78125 6.390625 
Q 39.453125 6.390625 43.28125 13.890625 
Q 47.125 21.390625 47.125 36.375 
Q 47.125 51.421875 43.28125 58.90625 
Q 39.453125 66.40625 31.78125 66.40625 
M 31.78125 74.21875 
Q 44.046875 74.21875 50.515625 64.515625 
Q 56.984375 54.828125 56.984375 36.375 
Q 56.984375 17.96875 50.515625 8.265625 
Q 44.046875 -1.421875 31.78125 -1.421875 
Q 19.53125 -1.421875 13.0625 8.265625 
Q 6.59375 17.96875 6.59375 36.375 
Q 6.59375 54.828125 13.0625 64.515625 
Q 19.53125 74.21875 31.78125 74.21875 
" id="BitstreamVeraSans-Roman-30"/>
      </defs>
      <g transform="translate(50.81875 263.5984375)scale(0.1 -0.1)">
       <use xlink:href="#BitstreamVeraSans-Roman-30"/>
      </g>
     </g>
    </g>
    <g id="xtick_2">
     <g id="line2d_7">
      <path clip-path="url(#p6246c5b663)" d="M 109.8 252 
L 109.8 28.8 
" style="fill:none;stroke:#000000;stroke-dasharray:1.000000,3.000000;stroke-dashoffset:0.0;stroke-width:0.5;"/>
     </g>
     <g id="line2d_8">
      <g>
       <use style="stroke:#000000;stroke-width:0.5;" x="109.8" xlink:href="#md1cce8c870" y="252.0"/>
      </g>
     </g>
     <g id="line2d_9">
      <g>
       <use style="stroke:#000000;stroke-width:0.5;" x="109.8" xlink:href="#ma8b3b7ec7f" y="28.8"/>
      </g>
     </g>
     <g id="text_2">
      <!-- 5 -->
      <defs>
       <path d="M 10.796875 72.90625 
L 49.515625 72.90625 
L 49.515625 64.59375 
L 19.828125 64.59375 
L 19.828125 46.734375 
Q 21.96875 47.46875 24.109375 47.828125 
Q 26.265625 48.1875 28.421875 48.1875 
Q 40.625 48.1875 47.75 41.5 
Q 54.890625 34.8125 54.890625 23.390625 
Q 54.890625 11.625 47.5625 5.09375 
Q 40.234375 -1.421875 26.90625 -1.421875 
Q 22.3125 -1.421875 17.546875 -0.640625 
Q 12.796875 0.140625 7.71875 1.703125 
L 7.71875 11.625 
Q 12.109375 9.234375 16.796875 8.0625 
Q 21.484375 6.890625 26.703125 6.890625 
Q 35.15625 6.890625 40.078125 11.328125 
Q 45.015625 15.765625 45.015625 23.390625 
Q 45.015625 31 40.078125 35.4375 
Q 35.15625 39.890625 26.703125 39.890625 
Q 22.75 39.890625 18.8125 39.015625 
Q 14.890625 38.140625 10.796875 36.28125 
z
" id="BitstreamVeraSans-Roman-35"/>
      </defs>
      <g transform="translate(106.61875 263.5984375)scale(0.1 -0.1)">
       <use xlink:href="#BitstreamVeraSans-Roman-35"/>
      </g>
     </g>
    </g>
    <g id="xtick_3">
     <g id="line2d_10">
      <path clip-path="url(#p6246c5b663)" d="M 165.6 252 
L 165.6 28.8 
" style="fill:none;stroke:#000000;stroke-dasharray:1.000000,3.000000;stroke-dashoffset:0.0;stroke-width:0.5;"/>
     </g>
     <g id="line2d_11">
      <g>
       <use style="stroke:#000000;stroke-width:0.5;" x="165.6" xlink:href="#md1cce8c870" y="252.0"/>
      </g>
     </g>
     <g id="line2d_12">
      <g>
       <use style="stroke:#000000;stroke-width:0.5;" x="165.6" xlink:href="#ma8b3b7ec7f" y="28.8"/>
      </g>
     </g>
     <g id="text_3">
      <!-- 10 -->
      <defs>
       <path d="M 12.40625 8.296875 
L 28.515625 8.296875 
L 28.515625 63.921875 
L 10.984375 60.40625 
L 10.984375 69.390625 
L 28.421875 72.90625 
L 38.28125 72.90625 
L 38.28125 8.296875 
L 54.390625 8.296875 
L 54.390625 0 
L 12.40625 0 
z
" id="BitstreamVeraSans-Roman-31"/>
      </defs>
      <g transform="translate(159.2375 263.5984375)scale(0.1 -0.1)">
       <use xlink:href="#BitstreamVeraSans-Roman-31"/>
       <use x="63.623046875" xlink:href="#BitstreamVeraSans-Roman-30"/>
      </g>
     </g>
    </g>
    <g id="xtick_4">
     <g id="line2d_13">
      <path clip-path="url(#p6246c5b663)" d="M 221.4 252 
L 221.4 28.8 
" style="fill:none;stroke:#000000;stroke-dasharray:1.000000,3.000000;stroke-dashoffset:0.0;stroke-width:0.5;"/>
     </g>
     <g id="line2d_14">
      <g>
       <use style="stroke:#000000;stroke-width:0.5;" x="221.4" xlink:href="#md1cce8c870" y="252.0"/>
      </g>
     </g>
     <g id="line2d_15">
      <g>
       <use style="stroke:#000000;stroke-width:0.5;" x="221.4" xlink:href="#ma8b3b7ec7f" y="28.8"/>
      </g>
     </g>
     <g id="text_4">
      <!-- 15 -->
      <g transform="translate(215.0375 263.5984375)scale(0.1 -0.1)">
       <use xlink:href="#BitstreamVeraSans-Roman-31"/>
       <use x="63.623046875" xlink:href="#BitstreamVeraSans-Roman-35"/>
      </g>
     </g>
    </g>
    <g id="xtick_5">
     <g id="line2d_16">
      <path clip-path="url(#p6246c5b663)" d="M 277.2 252 
L 277.2 28.8 
" style="fill:none;stroke:#000000;stroke-dasharray:1.000000,3.000000;stroke-dashoffset:0.0;stroke-width:0.5;"/>
     </g>
     <g id="line2d_17">
      <g>
       <use style="stroke:#000000;stroke-width:0.5;" x="277.2" xlink:href="#md1cce8c870" y="252.0"/>
      </g>
     </g>
     <g id="line2d_18">
      <g>
       <use style="stroke:#000000;stroke-width:0.5;" x="277.2" xlink:href="#ma8b3b7ec7f" y="28.8"/>
      </g>
     </g>
     <g id="text_5">
      <!-- 20 -->
      <defs>
       <path d="M 19.1875 8.296875 
L 53.609375 8.296875 
L 53.609375 0 
L 7.328125 0 
L 7.328125 8.296875 
Q 12.9375 14.109375 22.625 23.890625 
Q 32.328125 33.6875 34.8125 36.53125 
Q 39.546875 41.84375 41.421875 45.53125 
Q 43.3125 49.21875 43.3125 52.78125 
Q 43.3125 58.59375 39.234375 62.25 
Q 35.15625 65.921875 28.609375 65.921875 
Q 23.96875 65.921875 18.8125 64.3125 
Q 13.671875 62.703125 7.8125 59.421875 
L 7.8125 69.390625 
Q 13.765625 71.78125 18.9375 73 
Q 24.125 74.21875 28.421875 74.21875 
Q 39.75 74.21875 46.484375 68.546875 
Q 53.21875 62.890625 53.21875 53.421875 
Q 53.21875 48.921875 51.53125 44.890625 
Q 49.859375 40.875 45.40625 35.40625 
Q 44.1875 33.984375 37.640625 27.21875 
Q 31.109375 20.453125 19.1875 8.296875 
" id="BitstreamVeraSans-Roman-32"/>
      </defs>
      <g transform="translate(270.8375 263.5984375)scale(0.1 -0.1)">
       <use xlink:href="#BitstreamVeraSans-Roman-32"/>
       <use x="63.623046875" xlink:href="#BitstreamVeraSans-Roman-30"/>
      </g>
     </g>
    </g>
    <g id="xtick_6">
     <g id="line2d_19">
      <path clip-path="url(#p6246c5b663)" d="M 333 252 
L 333 28.8 
" style="fill:none;stroke:#000000;stroke-dasharray:1.000000,3.000000;stroke-dashoffset:0.0;stroke-width:0.5;"/>
     </g>
     <g id="line2d_20">
      <g>
       <use style="stroke:#000000;stroke-width:0.5;" x="333.0" xlink:href="#md1cce8c870" y="252.0"/>
      </g>
     </g>
     <g id="line2d_21">
      <g>
       <use style="stroke:#000000;stroke-width:0.5;" x="333.0" xlink:href="#ma8b3b7ec7f" y="28.8"/>
      </g>
     </g>
     <g id="text_6">
      <!-- 25 -->
      <g transform="translate(326.6375 263.5984375)scale(0.1 -0.1)">
       <use xlink:href="#BitstreamVeraSans-Roman-32"/>
       <use x="63.623046875" xlink:href="#BitstreamVeraSans-Roman-35"/>
      </g>
     </g>
    </g>
    <g id="xtick_7">
     <g id="line2d_22">
      <path clip-path="url(#p6246c5b663)" d="M 388.8 252 
L 388.8 28.8 
" style="fill:none;stroke:#000000;stroke-dasharray:1.000000,3.000000;stroke-dashoffset:0.0;stroke-width:0.5;"/>
     </g>
     <g id="line2d_23">
      <g>
       <use style="stroke:#000000;stroke-width:0.5;" x="388.8" xlink:href="#md1cce8c870" y="252.0"/>
      </g>
     </g>
     <g id="line2d_24">
      <g>
       <use style="stroke:#000000;stroke-width:0.5;" x="388.8" xlink:href="#ma8b3b7ec7f" y="28.8"/>
      </g>
     </g>
     <g id="text_7">
      <!-- 30 -->
      <defs>
       <path d="M 40.578125 39.3125 
Q 47.65625 37.796875 51.625 33 
Q 55.609375 28.21875 55.609375 21.1875 
Q 55.609375 10.40625 48.1875 4.484375 
Q 40.765625 -1.421875 27.09375 -1.421875 
Q 22.515625 -1.421875 17.65625 -0.515625 
Q 12.796875 0.390625 7.625 2.203125 
L 7.625 11.71875 
Q 11.71875 9.328125 16.59375 8.109375 
Q 21.484375 6.890625 26.8125 6.890625 
Q 36.078125 6.890625 40.9375 10.546875 
Q 45.796875 14.203125 45.796875 21.1875 
Q 45.796875 27.640625 41.28125 31.265625 
Q 36.765625 34.90625 28.71875 34.90625 
L 20.21875 34.90625 
L 20.21875 43.015625 
L 29.109375 43.015625 
Q 36.375 43.015625 40.234375 45.921875 
Q 44.09375 48.828125 44.09375 54.296875 
Q 44.09375 59.90625 40.109375 62.90625 
Q 36.140625 65.921875 28.71875 65.921875 
Q 24.65625 65.921875 20.015625 65.03125 
Q 15.375 64.15625 9.8125 62.3125 
L 9.8125 71.09375 
Q 15.4375 72.65625 20.34375 73.4375 
Q 25.25 74.21875 29.59375 74.21875 
Q 40.828125 74.21875 47.359375 69.109375 
Q 53.90625 64.015625 53.90625 55.328125 
Q 53.90625 49.265625 50.4375 45.09375 
Q 46.96875 40.921875 40.578125 39.3125 
" id="BitstreamVeraSans-Roman-33"/>
      </defs>
      <g transform="translate(382.4375 263.5984375)scale(0.1 -0.1)">
       <use xlink:href="#BitstreamVeraSans-Roman-33"/>
       <use x="63.623046875" xlink:href="#BitstreamVeraSans-Roman-30"/>
      </g>
     </g>
    </g>
    <g id="text_8">
     <!-- $x$ -->
     <defs>
      <path d="M 7.8125 2.875 
Q 9.578125 1.515625 12.796875 1.515625 
Q 15.921875 1.515625 18.3125 4.515625 
Q 20.703125 7.515625 21.578125 11.078125 
L 26.125 28.8125 
Q 27.203125 33.640625 27.203125 35.40625 
Q 27.203125 37.890625 25.8125 39.75 
Q 24.421875 41.609375 21.921875 41.609375 
Q 18.75 41.609375 15.96875 39.625 
Q 13.1875 37.640625 11.28125 34.59375 
Q 9.375 31.546875 8.59375 28.421875 
Q 8.40625 27.78125 7.8125 27.78125 
L 6.59375 27.78125 
Q 5.8125 27.78125 5.8125 28.71875 
L 5.8125 29 
Q 6.78125 32.71875 9.125 36.25 
Q 11.46875 39.796875 14.859375 41.984375 
Q 18.265625 44.1875 22.125 44.1875 
Q 25.78125 44.1875 28.734375 42.234375 
Q 31.6875 40.28125 32.90625 36.921875 
Q 34.625 39.984375 37.28125 42.078125 
Q 39.9375 44.1875 43.109375 44.1875 
Q 45.265625 44.1875 47.5 43.421875 
Q 49.75 42.671875 51.171875 41.109375 
Q 52.59375 39.546875 52.59375 37.203125 
Q 52.59375 34.671875 50.953125 32.828125 
Q 49.3125 31 46.78125 31 
Q 45.171875 31 44.09375 32.03125 
Q 43.015625 33.0625 43.015625 34.625 
Q 43.015625 36.71875 44.453125 38.296875 
Q 45.90625 39.890625 47.90625 40.1875 
Q 46.09375 41.609375 42.921875 41.609375 
Q 39.703125 41.609375 37.328125 38.625 
Q 34.96875 35.640625 33.984375 31.984375 
L 29.59375 14.3125 
Q 28.515625 10.296875 28.515625 7.71875 
Q 28.515625 5.171875 29.953125 3.34375 
Q 31.390625 1.515625 33.796875 1.515625 
Q 38.484375 1.515625 42.15625 5.640625 
Q 45.84375 9.765625 47.015625 14.703125 
Q 47.21875 15.28125 47.796875 15.28125 
L 49.03125 15.28125 
Q 49.421875 15.28125 49.65625 15.015625 
Q 49.90625 14.75 49.90625 14.40625 
Q 49.90625 14.3125 49.8125 14.109375 
Q 48.390625 8.15625 43.84375 3.515625 
Q 39.3125 -1.125 33.59375 -1.125 
Q 29.9375 -1.125 26.984375 0.84375 
Q 24.03125 2.828125 22.796875 6.203125 
Q 21.234375 3.265625 18.46875 1.0625 
Q 15.71875 -1.125 12.59375 -1.125 
Q 10.453125 -1.125 8.171875 -0.359375 
Q 5.90625 0.390625 4.484375 1.953125 
Q 3.078125 3.515625 3.078125 5.90625 
Q 3.078125 8.25 4.703125 10.171875 
Q 6.34375 12.109375 8.796875 12.109375 
Q 10.453125 12.109375 11.578125 11.109375 
Q 12.703125 10.109375 12.703125 8.5 
Q 12.703125 6.390625 11.296875 4.828125 
Q 9.90625 3.265625 7.8125 2.875 
" id="Cmmi10-78"/>
     </defs>
     <g transform="translate(218.5 278.2765625)scale(0.1 -0.1)">
      <use transform="translate(0.0 0.8125)" xlink:href="#Cmmi10-78"/>
     </g>
    </g>
   </g>
   <g id="matplotlib.axis_2">
    <g id="ytick_1">
     <g id="line2d_25">
      <path clip-path="url(#p6246c5b663)" d="M 54 252 
L 388.8 252 
" style="fill:none;stroke:#000000;stroke-dasharray:1.000000,3.000000;stroke-dashoffset:0.0;stroke-width:0.5;"/>
     </g>
     <g id="line2d_26">
      <defs>
       <path d="M 0 0 
L 4 0 
" id="mf47cb687bf" style="stroke:#000000;stroke-width:0.5;"/>
      </defs>
      <g>
       <use style="stroke:#000000;stroke-width:0.5;" x="54.0" xlink:href="#mf47cb687bf" y="252.0"/>
      </g>
     </g>
     <g id="line2d_27">
      <defs>
       <path d="M 0 0 
L -4 0 
" id="mf25bef2fca" style="stroke:#000000;stroke-width:0.5;"/>
      </defs>
      <g>
       <use style="stroke:#000000;stroke-width:0.5;" x="388.8" xlink:href="#mf25bef2fca" y="252.0"/>
      </g>
     </g>
     <g id="text_9">
      <!-- 0.00 -->
      <defs>
       <path d="M 10.6875 12.40625 
L 21 12.40625 
L 21 0 
L 10.6875 0 
z
" id="BitstreamVeraSans-Roman-2e"/>
      </defs>
      <g transform="translate(27.734375 254.759375)scale(0.1 -0.1)">
       <use xlink:href="#BitstreamVeraSans-Roman-30"/>
       <use x="63.623046875" xlink:href="#BitstreamVeraSans-Roman-2e"/>
       <use x="95.41015625" xlink:href="#BitstreamVeraSans-Roman-30"/>
       <use x="159.033203125" xlink:href="#BitstreamVeraSans-Roman-30"/>
      </g>
     </g>
    </g>
    <g id="ytick_2">
     <g id="line2d_28">
      <path clip-path="url(#p6246c5b663)" d="M 54 207.36 
L 388.8 207.36 
" style="fill:none;stroke:#000000;stroke-dasharray:1.000000,3.000000;stroke-dashoffset:0.0;stroke-width:0.5;"/>
     </g>
     <g id="line2d_29">
      <g>
       <use style="stroke:#000000;stroke-width:0.5;" x="54.0" xlink:href="#mf47cb687bf" y="207.36"/>
      </g>
     </g>
     <g id="line2d_30">
      <g>
       <use style="stroke:#000000;stroke-width:0.5;" x="388.8" xlink:href="#mf25bef2fca" y="207.36"/>
      </g>
     </g>
     <g id="text_10">
      <!-- 0.05 -->
      <g transform="translate(27.734375 210.119375)scale(0.1 -0.1)">
       <use xlink:href="#BitstreamVeraSans-Roman-30"/>
       <use x="63.623046875" xlink:href="#BitstreamVeraSans-Roman-2e"/>
       <use x="95.41015625" xlink:href="#BitstreamVeraSans-Roman-30"/>
       <use x="159.033203125" xlink:href="#BitstreamVeraSans-Roman-35"/>
      </g>
     </g>
    </g>
    <g id="ytick_3">
     <g id="line2d_31">
      <path clip-path="url(#p6246c5b663)" d="M 54 162.72 
L 388.8 162.72 
" style="fill:none;stroke:#000000;stroke-dasharray:1.000000,3.000000;stroke-dashoffset:0.0;stroke-width:0.5;"/>
     </g>
     <g id="line2d_32">
      <g>
       <use style="stroke:#000000;stroke-width:0.5;" x="54.0" xlink:href="#mf47cb687bf" y="162.72"/>
      </g>
     </g>
     <g id="line2d_33">
      <g>
       <use style="stroke:#000000;stroke-width:0.5;" x="388.8" xlink:href="#mf25bef2fca" y="162.72"/>
      </g>
     </g>
     <g id="text_11">
      <!-- 0.10 -->
      <g transform="translate(27.734375 165.479375)scale(0.1 -0.1)">
       <use xlink:href="#BitstreamVeraSans-Roman-30"/>
       <use x="63.623046875" xlink:href="#BitstreamVeraSans-Roman-2e"/>
       <use x="95.41015625" xlink:href="#BitstreamVeraSans-Roman-31"/>
       <use x="159.033203125" xlink:href="#BitstreamVeraSans-Roman-30"/>
      </g>
     </g>
    </g>
    <g id="ytick_4">
     <g id="line2d_34">
      <path clip-path="url(#p6246c5b663)" d="M 54 118.08 
L 388.8 118.08 
" style="fill:none;stroke:#000000;stroke-dasharray:1.000000,3.000000;stroke-dashoffset:0.0;stroke-width:0.5;"/>
     </g>
     <g id="line2d_35">
      <g>
       <use style="stroke:#000000;stroke-width:0.5;" x="54.0" xlink:href="#mf47cb687bf" y="118.08"/>
      </g>
     </g>
     <g id="line2d_36">
      <g>
       <use style="stroke:#000000;stroke-width:0.5;" x="388.8" xlink:href="#mf25bef2fca" y="118.08"/>
      </g>
     </g>
     <g id="text_12">
      <!-- 0.15 -->
      <g transform="translate(27.734375 120.839375)scale(0.1 -0.1)">
       <use xlink:href="#BitstreamVeraSans-Roman-30"/>
       <use x="63.623046875" xlink:href="#BitstreamVeraSans-Roman-2e"/>
       <use x="95.41015625" xlink:href="#BitstreamVeraSans-Roman-31"/>
       <use x="159.033203125" xlink:href="#BitstreamVeraSans-Roman-35"/>
      </g>
     </g>
    </g>
    <g id="ytick_5">
     <g id="line2d_37">
      <path clip-path="url(#p6246c5b663)" d="M 54 73.44 
L 388.8 73.44 
" style="fill:none;stroke:#000000;stroke-dasharray:1.000000,3.000000;stroke-dashoffset:0.0;stroke-width:0.5;"/>
     </g>
     <g id="line2d_38">
      <g>
       <use style="stroke:#000000;stroke-width:0.5;" x="54.0" xlink:href="#mf47cb687bf" y="73.44"/>
      </g>
     </g>
     <g id="line2d_39">
      <g>
       <use style="stroke:#000000;stroke-width:0.5;" x="388.8" xlink:href="#mf25bef2fca" y="73.44"/>
      </g>
     </g>
     <g id="text_13">
      <!-- 0.20 -->
      <g transform="translate(27.734375 76.199375)scale(0.1 -0.1)">
       <use xlink:href="#BitstreamVeraSans-Roman-30"/>
       <use x="63.623046875" xlink:href="#BitstreamVeraSans-Roman-2e"/>
       <use x="95.41015625" xlink:href="#BitstreamVeraSans-Roman-32"/>
       <use x="159.033203125" xlink:href="#BitstreamVeraSans-Roman-30"/>
      </g>
     </g>
    </g>
    <g id="ytick_6">
     <g id="line2d_40">
      <path clip-path="url(#p6246c5b663)" d="M 54 28.8 
L 388.8 28.8 
" style="fill:none;stroke:#000000;stroke-dasharray:1.000000,3.000000;stroke-dashoffset:0.0;stroke-width:0.5;"/>
     </g>
     <g id="line2d_41">
      <g>
       <use style="stroke:#000000;stroke-width:0.5;" x="54.0" xlink:href="#mf47cb687bf" y="28.8"/>
      </g>
     </g>
     <g id="line2d_42">
      <g>
       <use style="stroke:#000000;stroke-width:0.5;" x="388.8" xlink:href="#mf25bef2fca" y="28.8"/>
      </g>
     </g>
     <g id="text_14">
      <!-- 0.25 -->
      <g transform="translate(27.734375 31.559375)scale(0.1 -0.1)">
       <use xlink:href="#BitstreamVeraSans-Roman-30"/>
       <use x="63.623046875" xlink:href="#BitstreamVeraSans-Roman-2e"/>
       <use x="95.41015625" xlink:href="#BitstreamVeraSans-Roman-32"/>
       <use x="159.033203125" xlink:href="#BitstreamVeraSans-Roman-35"/>
      </g>
     </g>
    </g>
    <g id="text_15">
     <!-- $f(x)$ -->
     <defs>
      <path d="M 31 -24.8125 
Q 25.4375 -20.40625 21.40625 -14.71875 
Q 17.390625 -9.03125 14.8125 -2.578125 
Q 12.25 3.859375 10.984375 10.890625 
Q 9.71875 17.921875 9.71875 25 
Q 9.71875 32.171875 10.984375 39.203125 
Q 12.25 46.234375 14.859375 52.734375 
Q 17.484375 59.234375 21.53125 64.890625 
Q 25.59375 70.5625 31 74.8125 
Q 31 75 31.5 75 
L 32.421875 75 
Q 32.71875 75 32.953125 74.734375 
Q 33.203125 74.46875 33.203125 74.125 
Q 33.203125 73.6875 33.015625 73.484375 
Q 28.125 68.703125 24.875 63.234375 
Q 21.625 57.765625 19.640625 51.578125 
Q 17.671875 45.40625 16.796875 38.78125 
Q 15.921875 32.171875 15.921875 25 
Q 15.921875 -6.78125 32.90625 -23.296875 
Q 33.203125 -23.578125 33.203125 -24.125 
Q 33.203125 -24.359375 32.9375 -24.671875 
Q 32.671875 -25 32.421875 -25 
L 31.5 -25 
Q 31 -25 31 -24.8125 
" id="Cmr10-28"/>
      <path d="M 6.5 -25 
Q 5.609375 -25 5.609375 -24.125 
Q 5.609375 -23.6875 5.8125 -23.484375 
Q 22.90625 -6.78125 22.90625 25 
Q 22.90625 56.78125 6 73.296875 
Q 5.609375 73.53125 5.609375 74.125 
Q 5.609375 74.46875 5.875 74.734375 
Q 6.15625 75 6.5 75 
L 7.421875 75 
Q 7.71875 75 7.90625 74.8125 
Q 15.09375 69.140625 19.875 61.03125 
Q 24.65625 52.9375 26.875 43.75 
Q 29.109375 34.578125 29.109375 25 
Q 29.109375 17.921875 27.90625 11.0625 
Q 26.703125 4.203125 24.09375 -2.453125 
Q 21.484375 -9.125 17.484375 -14.765625 
Q 13.484375 -20.40625 7.90625 -24.8125 
Q 7.71875 -25 7.421875 -25 
z
" id="Cmr10-29"/>
      <path d="M 9.71875 -16.5 
Q 11.578125 -17.921875 14.203125 -17.921875 
Q 17.78125 -17.921875 20.015625 -10.015625 
Q 20.953125 -6.203125 25.09375 15.09375 
L 29.6875 39.59375 
L 21.09375 39.59375 
Q 20.125 39.59375 20.125 40.921875 
Q 20.515625 43.109375 21.390625 43.109375 
L 30.328125 43.109375 
L 31.5 49.609375 
Q 32.078125 52.640625 32.5625 54.8125 
Q 33.0625 56.984375 33.625 58.828125 
Q 34.1875 60.6875 35.296875 62.984375 
Q 37.015625 66.265625 39.921875 68.390625 
Q 42.828125 70.515625 46.1875 70.515625 
Q 48.390625 70.515625 50.46875 69.703125 
Q 52.546875 68.890625 53.859375 67.28125 
Q 55.171875 65.671875 55.171875 63.484375 
Q 55.171875 60.9375 53.484375 59.046875 
Q 51.8125 57.171875 49.421875 57.171875 
Q 47.796875 57.171875 46.65625 58.171875 
Q 45.515625 59.1875 45.515625 60.796875 
Q 45.515625 62.984375 47 64.625 
Q 48.484375 66.265625 50.6875 66.5 
Q 48.828125 67.921875 46.09375 67.921875 
Q 44.578125 67.921875 43.234375 66.5 
Q 41.890625 65.09375 41.5 63.484375 
Q 40.875 60.9375 38.71875 49.703125 
L 37.5 43.109375 
L 47.796875 43.109375 
Q 48.78125 43.109375 48.78125 41.796875 
Q 48.734375 41.546875 48.578125 40.9375 
Q 48.4375 40.328125 48.171875 39.953125 
Q 47.90625 39.59375 47.515625 39.59375 
L 36.8125 39.59375 
L 32.171875 15.1875 
Q 31.296875 9.859375 30.140625 4.359375 
Q 29 -1.125 26.921875 -6.90625 
Q 24.859375 -12.703125 21.625 -16.609375 
Q 18.40625 -20.515625 14.015625 -20.515625 
Q 10.640625 -20.515625 7.984375 -18.578125 
Q 5.328125 -16.65625 5.328125 -13.484375 
Q 5.328125 -10.9375 6.953125 -9.046875 
Q 8.59375 -7.171875 11.078125 -7.171875 
Q 12.75 -7.171875 13.859375 -8.171875 
Q 14.984375 -9.1875 14.984375 -10.796875 
Q 14.984375 -12.9375 13.390625 -14.71875 
Q 11.8125 -16.5 9.71875 -16.5 
" id="Cmmi10-66"/>
     </defs>
     <g transform="translate(20.234375 149.6)rotate(-90.0)scale(0.1 -0.1)">
      <use xlink:href="#Cmmi10-66"/>
      <use transform="translate(48.876953125 0.0)" xlink:href="#Cmr10-28"/>
      <use transform="translate(87.6953125 0.0)" xlink:href="#Cmmi10-78"/>
      <use transform="translate(144.775390625 0.0)" xlink:href="#Cmr10-29"/>
     </g>
    </g>
   </g>
   <g id="legend_1">
    <g id="patch_7">
     <path d="M 256.2 91.24125 
L 382.8 91.24125 
L 382.8 34.8 
L 256.2 34.8 
z
" style="fill:#ffffff;stroke:#000000;stroke-linejoin:miter;"/>
    </g>
    <g id="line2d_43"/>
    <g id="line2d_44">
     <g>
      <use style="fill:#0000ff;stroke:#0000ff;stroke-width:0.5;" x="264.6" xlink:href="#m3547972320" y="44.518125"/>
      <use style="fill:#0000ff;stroke:#0000ff;stroke-width:0.5;" x="281.4" xlink:href="#m3547972320" y="44.518125"/>
     </g>
    </g>
    <g id="text_16">
     <!-- $n=20$, $p=0.5$ -->
     <defs>
      <path id="BitstreamVeraSans-Roman-20"/>
      <path d="M 25 -2.203125 
Q 12.75 -2.203125 8.328125 7.875 
Q 3.90625 17.96875 3.90625 31.890625 
Q 3.90625 40.578125 5.484375 48.234375 
Q 7.078125 55.90625 11.78125 61.25 
Q 16.5 66.609375 25 66.609375 
Q 31.59375 66.609375 35.78125 63.375 
Q 39.984375 60.15625 42.1875 55.046875 
Q 44.390625 49.953125 45.1875 44.109375 
Q 46 38.28125 46 31.890625 
Q 46 23.296875 44.40625 15.796875 
Q 42.828125 8.296875 38.1875 3.046875 
Q 33.546875 -2.203125 25 -2.203125 
M 25 0.390625 
Q 30.5625 0.390625 33.296875 6.09375 
Q 36.03125 11.8125 36.671875 18.75 
Q 37.3125 25.6875 37.3125 33.5 
Q 37.3125 41.015625 36.671875 47.359375 
Q 36.03125 53.71875 33.3125 58.859375 
Q 30.609375 64.015625 25 64.015625 
Q 19.34375 64.015625 16.609375 58.828125 
Q 13.875 53.65625 13.234375 47.328125 
Q 12.59375 41.015625 12.59375 33.5 
Q 12.59375 27.9375 12.859375 23 
Q 13.140625 18.0625 14.3125 12.8125 
Q 15.484375 7.5625 18.09375 3.96875 
Q 20.703125 0.390625 25 0.390625 
" id="Cmr10-30"/>
      <path d="M 7.71875 1.703125 
Q 7.71875 2.296875 7.8125 2.59375 
L 15.28125 32.421875 
Q 16.015625 35.203125 16.015625 37.3125 
Q 16.015625 41.609375 13.09375 41.609375 
Q 9.96875 41.609375 8.453125 37.859375 
Q 6.9375 34.125 5.515625 28.421875 
Q 5.515625 28.125 5.21875 27.953125 
Q 4.9375 27.78125 4.6875 27.78125 
L 3.515625 27.78125 
Q 3.171875 27.78125 2.921875 28.140625 
Q 2.6875 28.515625 2.6875 28.8125 
Q 3.765625 33.15625 4.765625 36.171875 
Q 5.765625 39.203125 7.890625 41.6875 
Q 10.015625 44.1875 13.1875 44.1875 
Q 16.9375 44.1875 19.8125 41.8125 
Q 22.703125 39.453125 22.703125 35.796875 
Q 25.6875 39.703125 29.6875 41.9375 
Q 33.6875 44.1875 38.1875 44.1875 
Q 41.75 44.1875 44.328125 42.96875 
Q 46.921875 41.75 48.359375 39.28125 
Q 49.8125 36.8125 49.8125 33.40625 
Q 49.8125 29.296875 47.96875 23.484375 
Q 46.140625 17.671875 43.40625 10.5 
Q 42 7.234375 42 4.5 
Q 42 1.515625 44.28125 1.515625 
Q 48.1875 1.515625 50.796875 5.703125 
Q 53.421875 9.90625 54.5 14.703125 
Q 54.6875 15.28125 55.328125 15.28125 
L 56.5 15.28125 
Q 56.890625 15.28125 57.15625 15.03125 
Q 57.421875 14.796875 57.421875 14.40625 
Q 57.421875 14.3125 57.328125 14.109375 
Q 55.953125 8.453125 52.5625 3.65625 
Q 49.171875 -1.125 44.09375 -1.125 
Q 40.578125 -1.125 38.078125 1.296875 
Q 35.59375 3.71875 35.59375 7.171875 
Q 35.59375 9.03125 36.375 11.078125 
Q 37.640625 14.359375 39.28125 18.890625 
Q 40.921875 23.4375 41.96875 27.578125 
Q 43.015625 31.734375 43.015625 34.90625 
Q 43.015625 37.703125 41.859375 39.65625 
Q 40.71875 41.609375 37.984375 41.609375 
Q 34.328125 41.609375 31.25 39.984375 
Q 28.171875 38.375 25.875 35.71875 
Q 23.578125 33.0625 21.6875 29.390625 
L 14.890625 2.203125 
Q 14.546875 0.828125 13.34375 -0.140625 
Q 12.15625 -1.125 10.6875 -1.125 
Q 9.46875 -1.125 8.59375 -0.34375 
Q 7.71875 0.4375 7.71875 1.703125 
" id="Cmmi10-6e"/>
      <path d="M 8.6875 11.375 
Q 9.71875 8.453125 11.84375 6.046875 
Q 13.96875 3.65625 16.875 2.3125 
Q 19.78125 0.984375 22.90625 0.984375 
Q 30.125 0.984375 32.859375 6.59375 
Q 35.59375 12.203125 35.59375 20.21875 
Q 35.59375 23.6875 35.46875 26.046875 
Q 35.359375 28.421875 34.8125 30.609375 
Q 33.890625 34.125 31.5625 36.765625 
Q 29.25 39.40625 25.875 39.40625 
Q 22.515625 39.40625 20.09375 38.375 
Q 17.671875 37.359375 16.15625 35.984375 
Q 14.65625 34.625 13.484375 33.109375 
Q 12.3125 31.59375 12.015625 31.5 
L 10.890625 31.5 
Q 10.640625 31.5 10.265625 31.8125 
Q 9.90625 32.125 9.90625 32.421875 
L 9.90625 65.828125 
Q 9.90625 66.0625 10.21875 66.328125 
Q 10.546875 66.609375 10.890625 66.609375 
L 11.1875 66.609375 
Q 17.921875 63.375 25.484375 63.375 
Q 32.90625 63.375 39.796875 66.609375 
L 40.09375 66.609375 
Q 40.4375 66.609375 40.71875 66.359375 
Q 41.015625 66.109375 41.015625 65.828125 
L 41.015625 64.890625 
Q 41.015625 64.40625 40.828125 64.40625 
Q 37.40625 59.859375 32.25 57.3125 
Q 27.09375 54.78125 21.578125 54.78125 
Q 17.578125 54.78125 13.375 55.90625 
L 13.375 37.015625 
Q 16.703125 39.703125 19.3125 40.84375 
Q 21.921875 42 25.984375 42 
Q 31.5 42 35.859375 38.8125 
Q 40.234375 35.640625 42.578125 30.53125 
Q 44.921875 25.4375 44.921875 20.125 
Q 44.921875 14.109375 41.96875 8.984375 
Q 39.015625 3.859375 33.9375 0.828125 
Q 28.859375 -2.203125 22.90625 -2.203125 
Q 17.96875 -2.203125 13.84375 0.328125 
Q 9.71875 2.875 7.34375 7.171875 
Q 4.984375 11.46875 4.984375 16.3125 
Q 4.984375 18.5625 6.4375 19.96875 
Q 7.90625 21.390625 10.109375 21.390625 
Q 12.3125 21.390625 13.796875 19.9375 
Q 15.28125 18.5 15.28125 16.3125 
Q 15.28125 14.15625 13.796875 12.671875 
Q 12.3125 11.1875 10.109375 11.1875 
Q 9.765625 11.1875 9.328125 11.25 
Q 8.890625 11.328125 8.6875 11.375 
" id="Cmr10-35"/>
      <path d="M 4.984375 0 
L 4.984375 2.6875 
Q 4.984375 2.9375 5.171875 3.21875 
L 20.703125 20.40625 
Q 24.21875 24.21875 26.40625 26.796875 
Q 28.609375 29.390625 30.75 32.765625 
Q 32.90625 36.140625 34.15625 39.625 
Q 35.40625 43.109375 35.40625 47.015625 
Q 35.40625 51.125 33.890625 54.859375 
Q 32.375 58.59375 29.375 60.84375 
Q 26.375 63.09375 22.125 63.09375 
Q 17.78125 63.09375 14.3125 60.46875 
Q 10.84375 57.859375 9.421875 53.71875 
Q 9.8125 53.8125 10.5 53.8125 
Q 12.75 53.8125 14.328125 52.296875 
Q 15.921875 50.78125 15.921875 48.390625 
Q 15.921875 46.09375 14.328125 44.5 
Q 12.75 42.921875 10.5 42.921875 
Q 8.15625 42.921875 6.5625 44.546875 
Q 4.984375 46.1875 4.984375 48.390625 
Q 4.984375 52.15625 6.390625 55.4375 
Q 7.8125 58.734375 10.46875 61.296875 
Q 13.140625 63.875 16.484375 65.234375 
Q 19.828125 66.609375 23.578125 66.609375 
Q 29.296875 66.609375 34.21875 64.1875 
Q 39.15625 61.765625 42.03125 57.34375 
Q 44.921875 52.9375 44.921875 47.015625 
Q 44.921875 42.671875 43.015625 38.765625 
Q 41.109375 34.859375 38.125 31.65625 
Q 35.15625 28.46875 30.515625 24.40625 
Q 25.875 20.359375 24.421875 19 
L 13.09375 8.109375 
L 22.703125 8.109375 
Q 29.78125 8.109375 34.546875 8.21875 
Q 39.3125 8.34375 39.59375 8.59375 
Q 40.765625 9.859375 42 17.828125 
L 44.921875 17.828125 
L 42.09375 0 
z
" id="Cmr10-32"/>
      <path d="M -2.484375 -19.390625 
Q -3.421875 -19.390625 -3.421875 -18.109375 
Q -3.078125 -15.921875 -2.09375 -15.921875 
Q 1.03125 -15.921875 2.265625 -15.359375 
Q 3.515625 -14.796875 4.203125 -12.5 
L 15.484375 32.515625 
Q 16.21875 34.375 16.21875 37.3125 
Q 16.21875 41.609375 13.28125 41.609375 
Q 10.15625 41.609375 8.640625 37.859375 
Q 7.125 34.125 5.71875 28.421875 
Q 5.71875 27.78125 4.890625 27.78125 
L 3.71875 27.78125 
Q 3.46875 27.78125 3.171875 28.140625 
Q 2.875 28.515625 2.875 28.8125 
Q 3.953125 33.15625 4.953125 36.171875 
Q 5.953125 39.203125 8.078125 41.6875 
Q 10.203125 44.1875 13.375 44.1875 
Q 16.796875 44.1875 19.375 42.25 
Q 21.96875 40.328125 22.703125 37.015625 
Q 25.4375 40.1875 28.75 42.1875 
Q 32.078125 44.1875 35.59375 44.1875 
Q 39.796875 44.1875 42.890625 41.9375 
Q 46 39.703125 47.5625 36.0625 
Q 49.125 32.421875 49.125 28.21875 
Q 49.125 21.78125 45.828125 14.890625 
Q 42.53125 8.015625 36.890625 3.4375 
Q 31.25 -1.125 24.8125 -1.125 
Q 21.875 -1.125 19.5 0.53125 
Q 17.140625 2.203125 15.828125 4.890625 
L 11.28125 -12.890625 
Q 11.03125 -14.359375 10.984375 -14.59375 
Q 10.984375 -15.921875 17.578125 -15.921875 
Q 18.609375 -15.921875 18.609375 -17.1875 
Q 18.265625 -18.5 18.046875 -18.9375 
Q 17.828125 -19.390625 16.890625 -19.390625 
z
M 24.90625 1.515625 
Q 28.375 1.515625 31.34375 4.375 
Q 34.328125 7.234375 36.1875 10.796875 
Q 37.546875 13.484375 38.734375 17.359375 
Q 39.9375 21.234375 40.8125 25.625 
Q 41.703125 30.03125 41.703125 32.625 
Q 41.703125 34.90625 41.09375 36.90625 
Q 40.484375 38.921875 39.09375 40.265625 
Q 37.703125 41.609375 35.40625 41.609375 
Q 31.734375 41.609375 28.484375 38.984375 
Q 25.25 36.375 22.609375 32.515625 
L 22.609375 32.171875 
L 17.09375 10.109375 
Q 17.78125 6.546875 19.734375 4.03125 
Q 21.6875 1.515625 24.90625 1.515625 
" id="Cmmi10-70"/>
      <path d="M 11.71875 12.40625 
L 22.015625 12.40625 
L 22.015625 4 
L 14.015625 -11.625 
L 7.71875 -11.625 
L 11.71875 4 
z
" id="BitstreamVeraSans-Roman-2c"/>
      <path d="M 7.515625 13.28125 
Q 6.6875 13.28125 6.140625 13.90625 
Q 5.609375 14.546875 5.609375 15.28125 
Q 5.609375 16.109375 6.140625 16.6875 
Q 6.6875 17.28125 7.515625 17.28125 
L 70.3125 17.28125 
Q 71.046875 17.28125 71.578125 16.6875 
Q 72.125 16.109375 72.125 15.28125 
Q 72.125 14.546875 71.578125 13.90625 
Q 71.046875 13.28125 70.3125 13.28125 
z
M 7.515625 32.71875 
Q 6.6875 32.71875 6.140625 33.296875 
Q 5.609375 33.890625 5.609375 34.71875 
Q 5.609375 35.453125 6.140625 36.078125 
Q 6.6875 36.71875 7.515625 36.71875 
L 70.3125 36.71875 
Q 71.046875 36.71875 71.578125 36.078125 
Q 72.125 35.453125 72.125 34.71875 
Q 72.125 33.890625 71.578125 33.296875 
Q 71.046875 32.71875 70.3125 32.71875 
z
" id="Cmr10-3d"/>
      <path d="M 8.40625 5.515625 
Q 8.40625 7.765625 10.0625 9.375 
Q 11.71875 10.984375 13.921875 10.984375 
Q 15.28125 10.984375 16.59375 10.25 
Q 17.921875 9.515625 18.65625 8.203125 
Q 19.390625 6.890625 19.390625 5.515625 
Q 19.390625 3.328125 17.765625 1.65625 
Q 16.15625 0 13.921875 0 
Q 11.71875 0 10.0625 1.65625 
Q 8.40625 3.328125 8.40625 5.515625 
" id="Cmmi10-3a"/>
     </defs>
     <g transform="translate(294.6 48.718125)scale(0.12 -0.12)">
      <use transform="translate(0.0 0.390625)" xlink:href="#Cmmi10-6e"/>
      <use transform="translate(77.568359375 0.390625)" xlink:href="#Cmr10-3d"/>
      <use transform="translate(172.8125 0.390625)" xlink:href="#Cmr10-32"/>
      <use transform="translate(222.8125 0.390625)" xlink:href="#Cmr10-30"/>
      <use transform="translate(272.8125 0.390625)" xlink:href="#BitstreamVeraSans-Roman-2c"/>
      <use transform="translate(304.599609375 0.390625)" xlink:href="#BitstreamVeraSans-Roman-20"/>
      <use transform="translate(336.38671875 0.390625)" xlink:href="#Cmmi10-70"/>
      <use transform="translate(404.23828125 0.390625)" xlink:href="#Cmr10-3d"/>
      <use transform="translate(499.482421875 0.390625)" xlink:href="#Cmr10-30"/>
      <use transform="translate(549.482421875 0.390625)" xlink:href="#Cmmi10-3a"/>
      <use transform="translate(594.7265625 0.390625)" xlink:href="#Cmr10-35"/>
     </g>
    </g>
    <g id="line2d_45"/>
    <g id="line2d_46">
     <g>
      <use style="fill:#008000;stroke:#008000;stroke-width:0.5;" x="264.6" xlink:href="#m3313f32e71" y="62.131875"/>
      <use style="fill:#008000;stroke:#008000;stroke-width:0.5;" x="281.4" xlink:href="#m3313f32e71" y="62.131875"/>
     </g>
    </g>
    <g id="text_17">
     <!-- $n=20$, $p=0.75$ -->
     <defs>
      <path d="M 17.390625 2.59375 
Q 17.390625 8.15625 18.359375 13.46875 
Q 19.34375 18.796875 21.21875 24 
Q 23.09375 29.203125 25.75 34.203125 
Q 28.421875 39.203125 31.59375 43.609375 
L 40.71875 56.296875 
L 29.296875 56.296875 
Q 11.53125 56.296875 10.984375 55.8125 
Q 9.671875 54.203125 8.5 46.578125 
L 5.609375 46.578125 
L 8.890625 67.578125 
L 11.8125 67.578125 
L 11.8125 67.28125 
Q 11.8125 65.484375 17.921875 64.9375 
Q 24.03125 64.40625 29.890625 64.40625 
L 48.484375 64.40625 
L 48.484375 61.8125 
Q 48.484375 61.71875 48.453125 61.671875 
Q 48.4375 61.625 48.390625 61.53125 
L 34.625 42.1875 
Q 29.546875 34.671875 28.265625 25.484375 
Q 27 16.3125 27 2.59375 
Q 27 0.640625 25.578125 -0.78125 
Q 24.171875 -2.203125 22.21875 -2.203125 
Q 20.21875 -2.203125 18.796875 -0.78125 
Q 17.390625 0.640625 17.390625 2.59375 
" id="Cmr10-37"/>
     </defs>
     <g transform="translate(294.6 66.331875)scale(0.12 -0.12)">
      <use transform="translate(0.0 0.421875)" xlink:href="#Cmmi10-6e"/>
      <use transform="translate(77.568359375 0.421875)" xlink:href="#Cmr10-3d"/>
      <use transform="translate(172.8125 0.421875)" xlink:href="#Cmr10-32"/>
      <use transform="translate(222.8125 0.421875)" xlink:href="#Cmr10-30"/>
      <use transform="translate(272.8125 0.421875)" xlink:href="#BitstreamVeraSans-Roman-2c"/>
      <use transform="translate(304.599609375 0.421875)" xlink:href="#BitstreamVeraSans-Roman-20"/>
      <use transform="translate(336.38671875 0.421875)" xlink:href="#Cmmi10-70"/>
      <use transform="translate(404.23828125 0.421875)" xlink:href="#Cmr10-3d"/>
      <use transform="translate(499.482421875 0.421875)" xlink:href="#Cmr10-30"/>
      <use transform="translate(549.482421875 0.421875)" xlink:href="#Cmmi10-3a"/>
      <use transform="translate(594.7265625 0.421875)" xlink:href="#Cmr10-37"/>
      <use transform="translate(644.7265625 0.421875)" xlink:href="#Cmr10-35"/>
     </g>
    </g>
    <g id="line2d_47"/>
    <g id="line2d_48">
     <g>
      <use style="fill:#ff0000;stroke:#ff0000;stroke-width:0.5;" x="264.6" xlink:href="#m76fe032cd8" y="79.745625"/>
      <use style="fill:#ff0000;stroke:#ff0000;stroke-width:0.5;" x="281.4" xlink:href="#m76fe032cd8" y="79.745625"/>
     </g>
    </g>
    <g id="text_18">
     <!-- $n=40$, $p=0.5$ -->
     <defs>
      <path d="M 2.78125 16.5 
L 2.78125 20.015625 
L 33.6875 66.109375 
Q 34.03125 66.609375 34.71875 66.609375 
L 36.1875 66.609375 
Q 37.3125 66.609375 37.3125 65.484375 
L 37.3125 20.015625 
L 47.125 20.015625 
L 47.125 16.5 
L 37.3125 16.5 
L 37.3125 6.6875 
Q 37.3125 4.640625 40.234375 4.078125 
Q 43.171875 3.515625 47.015625 3.515625 
L 47.015625 0 
L 19.484375 0 
L 19.484375 3.515625 
Q 23.34375 3.515625 26.265625 4.078125 
Q 29.203125 4.640625 29.203125 6.6875 
L 29.203125 16.5 
z
M 6.109375 20.015625 
L 29.78125 20.015625 
L 29.78125 55.421875 
z
" id="Cmr10-34"/>
     </defs>
     <g transform="translate(294.6 83.945625)scale(0.12 -0.12)">
      <use transform="translate(0.0 0.390625)" xlink:href="#Cmmi10-6e"/>
      <use transform="translate(77.568359375 0.390625)" xlink:href="#Cmr10-3d"/>
      <use transform="translate(172.8125 0.390625)" xlink:href="#Cmr10-34"/>
      <use transform="translate(222.8125 0.390625)" xlink:href="#Cmr10-30"/>
      <use transform="translate(272.8125 0.390625)" xlink:href="#BitstreamVeraSans-Roman-2c"/>
      <use transform="translate(304.599609375 0.390625)" xlink:href="#BitstreamVeraSans-Roman-20"/>
      <use transform="translate(336.38671875 0.390625)" xlink:href="#Cmmi10-70"/>
      <use transform="translate(404.23828125 0.390625)" xlink:href="#Cmr10-3d"/>
      <use transform="translate(499.482421875 0.390625)" xlink:href="#Cmr10-30"/>
      <use transform="translate(549.482421875 0.390625)" xlink:href="#Cmmi10-3a"/>
      <use transform="translate(594.7265625 0.390625)" xlink:href="#Cmr10-35"/>
     </g>
    </g>
   </g>
  </g>
 </g>
 <defs>
  <clipPath id="p6246c5b663">
   <rect height="223.2" width="334.8" x="54.0" y="28.8"/>
  </clipPath>
 </defs>
</svg>
